# xmcd
#
# Track frame offsets:
#	150
#	12972
#	32826
#	53664
#	77058
#	96824
#	113518
#	125044
#	144720
#	161255
#
# Disc length: 2333 seconds
#
# Revision: 1
# Processed by: cddbd v1.5.2PL0 Copyright (c) Steve Scherf et al.
# Submitted via: audiograbber 1.83.01
#
DISCID=78091b0a
DTITLE=Miss Quincy - Your Mama Don't Like Me
DYEAR=2010
DGENRE=Blues
TTITLE0=Your Mama Don't Like Me
TTITLE1=Nobody Without You
TTITLE2=Dead Horse
TTITLE3=Record Store
TTITLE4=Water and Whiskey
TTITLE5=Wild Mountain Flower
TTITLE6=Reno's Song
TTITLE7=Sweet Jesus Cafe
TTITLE8=Dirty Boat
TTITLE9=Bad Luck Woman
EXTD=All songs ©2010 (SOCAN) Miss Quincy except Water and Whiskey (©2010 Miss Qui
EXTD=ncy and Angela Healy), Reno's Song (©2010 Reno Fitch), and Bad Luck Woman 
EXTD=(Memphis Minnie, ASCAP, used with permission from The Memphis Minnie Music
EXTD=Company)
EXTT0=
EXTT1=
EXTT2=
EXTT3=
EXTT4=
EXTT5=
EXTT6=
EXTT7=
EXTT8=
EXTT9=
PLAYORDER=
